<?xml version="1.0" standalone="no"?><!DOCTYPE svg PUBLIC "-//W3C//DTD SVG 1.1//EN" "http://www.w3.org/Graphics/SVG/1.1/DTD/svg11.dtd"><svg class="icon" width="200px" height="200.00px" viewBox="0 0 1024 1024" version="1.1" xmlns="http://www.w3.org/2000/svg"><path d="M511.213557 65.37494c-245.875761 0-445.212719 199.317535-445.212719 445.184245s199.336958 445.184245 445.212719 445.184245c245.898275 0 445.222953-199.316511 445.222953-445.184245S757.111832 65.37494 511.213557 65.37494zM511.236071 911.129326c-220.774055 0-400.391095-180.345438-400.391095-400.919089 0-220.570581 179.61704-400.004253 400.391095-400.004253 220.776102 0 400.391095 179.433672 400.391095 400.004253C911.627165 730.783889 732.012172 911.129326 511.236071 911.129326zM711.648568 488.437351 348.187037 488.437351l132.332216-141.90494c8.681062-8.691963 8.681062-22.772656 0-31.465642-8.703576-8.692986-22.786893-8.692986-31.467955 0L267.533901 511.168052l178.72468 197.47149c4.356393 4.347005 10.049279 6.541997 15.733977 6.541997 5.692886 0 11.387818-2.194992 15.733977-6.541997 8.694366-8.67252 8.694366-22.750143 0-31.469736l-130.961953-144.224776 364.885008 0c12.290411 0 22.254752-9.954723 22.254752-22.255887C733.90332 498.410494 723.937956 488.437351 711.648568 488.437351z" fill="#272636" /></svg>