<?xml version="1.0" standalone="no"?><!DOCTYPE svg PUBLIC "-//W3C//DTD SVG 1.1//EN" "http://www.w3.org/Graphics/SVG/1.1/DTD/svg11.dtd"><svg class="icon" width="200px" height="200.00px" viewBox="0 0 1024 1024" version="1.1" xmlns="http://www.w3.org/2000/svg"><path d="M332.544 172.8a155.7504 155.7504 0 1 0 0 311.5264h155.776v-155.776A155.7504 155.7504 0 0 0 332.544 172.8z m4.864 64.128a91.776 91.776 0 0 1 86.912 91.648l-0.0256 91.7248H332.544a91.7504 91.7504 0 1 1 0-183.5008l4.864 0.128zM847.2064 328.5504a155.7504 155.7504 0 0 0-311.5264 0v155.776h155.776a155.7504 155.7504 0 0 0 155.7504-155.776z m-64.128 4.864a91.776 91.776 0 0 1-91.648 86.912h-91.7248v-91.776a91.7504 91.7504 0 0 1 183.5008 0l-0.128 4.864zM176.7936 695.4496a155.7504 155.7504 0 1 0 311.5264 0V539.648H332.544a155.7504 155.7504 0 0 0-155.7504 155.776z m64.128-4.864a91.776 91.776 0 0 1 91.648-86.912h91.7248v91.776a91.7504 91.7504 0 1 1-183.5008 0l0.128-4.864zM691.456 851.2a155.7504 155.7504 0 0 0 0-311.5264h-155.776v155.776a155.7504 155.7504 0 0 0 155.776 155.7504z m-4.864-64.128a91.776 91.776 0 0 1-86.912-91.648v-91.7248h91.776a91.7504 91.7504 0 0 1 0 183.5008l-4.864-0.128z" fill="#FB553C" /></svg>