<?xml version="1.0" standalone="no"?><!DOCTYPE svg PUBLIC "-//W3C//DTD SVG 1.1//EN" "http://www.w3.org/Graphics/SVG/1.1/DTD/svg11.dtd"><svg class="icon" width="200px" height="200.00px" viewBox="0 0 1024 1024" version="1.1" xmlns="http://www.w3.org/2000/svg"><path d="M1009.777778 366.933333c-16.355556-58.311111-85.333333-97.422222-184.177778-114.488889 14.933333 17.777778 27.733333 36.266667 39.822222 55.466667 54.755556 15.644444 91.733333 40.533333 100.266667 70.4 4.977778 17.777778 0.711111 38.4-12.8 61.155556-14.222222 24.888889-40.533333 53.333333-76.8 81.066666v-5.688889c0-200.533333-162.844444-363.377778-363.377778-363.377777C312.177778 151.466667 149.333333 314.311111 149.333333 514.844444c0 59.022222 14.222222 117.333333 41.955556 169.955556-71.822222-14.933333-120.888889-42.666667-131.555556-78.222222-2.844444-16.355556 1.422222-36.977778 14.222223-59.733334 7.111111-12.8 18.488889-26.311111 31.288888-39.822222 0.711111-23.466667 2.844444-46.222222 7.111112-68.977778C39.111111 497.777778 2.133333 563.2 17.777778 620.088889c17.777778 63.288889 96.711111 103.822222 208.355555 118.044444 66.133333 86.044444 170.666667 141.511111 287.288889 141.511111 178.488889 0 326.4-128 356.977778-297.244444 103.111111-68.266667 158.577778-147.2 139.377778-215.466667z m-495.644445 467.2c-83.2 0-163.555556-32.711111-222.577777-91.733333 7.822222 0 15.644444 0.711111 23.466666 0.711111 78.933333 0 167.822222-11.377778 259.555556-34.844444 91.022222-23.466667 173.511111-56.177778 241.777778-93.155556-41.955556 127.288889-161.422222 219.022222-302.222223 219.022222zM829.155556 554.666667c-66.844444 41.955556-156.444444 81.777778-265.955556 109.511111-85.333333 22.044444-170.666667 33.422222-248.888889 33.422222-22.755556 0-43.377778 2.133333-64 0-34.844444-51.2-54.755556-115.911111-54.755555-182.044444 0-175.644444 142.222222-317.866667 317.866666-317.866667s317.866667 142.222222 317.866667 317.866667c0.711111 13.511111-0.711111 26.311111-2.133333 39.111111z m-474.311112 52.622222c-36.977778 0-69.688889-22.044444-83.911111-56.177778-14.222222-34.133333-6.4-73.244444 19.911111-98.844444 26.311111-26.311111 64.711111-33.422222 98.844445-19.911111 34.133333 14.222222 56.177778 46.933333 56.177778 83.911111 0 50.488889-40.533333 91.022222-91.022223 91.022222z m0-136.533333c-18.488889 0-34.844444 11.377778-41.955555 27.733333-7.111111 17.066667-2.844444 36.266667 9.955555 49.777778 12.8 12.8 32.711111 17.066667 49.777778 9.955555 17.066667-7.111111 27.733333-23.466667 27.733334-41.955555 0-24.888889-20.622222-45.511111-45.511112-45.511111z m193.422223-113.066667c-22.755556 0-43.377778-13.511111-52.622223-34.844445-8.533333-21.333333-4.266667-45.511111 12.088889-61.866666 16.355556-16.355556 40.533333-21.333333 61.866667-12.088889 21.333333 8.533333 34.844444 29.866667 34.844444 52.622222 0.711111 30.577778-24.888889 56.177778-56.177777 56.177778z m0-68.266667c-4.977778 0-9.955556 3.555556-10.666667 8.533334-1.422222 4.977778 0.711111 9.955556 4.977778 12.8 4.266667 2.844444 9.955556 2.133333 13.511111-2.133334 3.555556-3.555556 4.266667-7.822222 2.133333-12.088889-1.422222-4.266667-5.688889-7.111111-9.955555-7.111111zM672.711111 561.777778c-18.488889 0-34.844444-11.377778-41.955555-27.733334-7.111111-17.066667-2.844444-36.266667 9.955555-49.777777 12.8-12.8 32.711111-17.066667 49.777778-9.955556 17.066667 7.111111 27.733333 23.466667 27.733333 41.955556 0 12.088889-4.977778 23.466667-13.511111 32-7.822222 8.533333-19.911111 13.511111-32 13.511111z m0 0" fill="#515151" /></svg>