<?xml version="1.0" standalone="no"?><!DOCTYPE svg PUBLIC "-//W3C//DTD SVG 1.1//EN" "http://www.w3.org/Graphics/SVG/1.1/DTD/svg11.dtd"><svg class="icon" width="60px" height="60.00px" viewBox="0 0 1024 1024" version="1.1" xmlns="http://www.w3.org/2000/svg"><path d="M888 913.5c0 7.4-6 13.3-13.3 13.3H149.3c-7.4 0-13.3-6-13.3-13.3 0-1.1 0.1-2.1 0.4-3.1 6.8-157 109.8-289.1 251.7-338.6l116.7 116.7c4 4 10.5 4 14.5 0L636 571.8c141.8 49.5 244.9 181.6 251.7 338.6 0.2 1 0.3 2 0.3 3.1zM512 550.8c-124.5 0-225.4-100.9-225.4-225.4S387.5 100.1 512 100.1 737.4 201 737.4 325.4 636.5 550.8 512 550.8z" fill="#1296db" /></svg>