<?xml version="1.0" standalone="no"?><!DOCTYPE svg PUBLIC "-//W3C//DTD SVG 1.1//EN" "http://www.w3.org/Graphics/SVG/1.1/DTD/svg11.dtd"><svg t="1722241324601" class="icon" viewBox="0 0 1024 1024" version="1.1" xmlns="http://www.w3.org/2000/svg" p-id="4339" xmlns:xlink="http://www.w3.org/1999/xlink" width="60" height="60"><path d="M418.464 541.536a64 64 0 0 1 64 64V832a64 64 0 0 1-64 64H192a64 64 0 0 1-64-64v-226.464a64 64 0 0 1 64-64h226.464z m0 64H192V832h226.464v-226.464z m0-477.536a64 64 0 0 1 64 64v226.464a64 64 0 0 1-64 64H192a64 64 0 0 1-64-64V192a64 64 0 0 1 64-64h226.464zM832 128a64 64 0 0 1 64 64v226.464a64 64 0 0 1-64 64h-226.464a64 64 0 0 1-64-64V192a64 64 0 0 1 64-64H832zM418.464 192H192v226.464h226.464V192zM832 192h-226.464v226.464H832V192zM825.6 768c3.52 0 6.4 2.88 6.4 6.4v51.2a6.4 6.4 0 0 1-6.4 6.4h-243.2a6.4 6.4 0 0 1-6.4-6.4v-51.2c0-3.52 2.88-6.4 6.4-6.4h243.2z m61.536-128c3.52 0 6.4 2.88 6.4 6.4v51.2a6.4 6.4 0 0 1-6.4 6.4h-307.2a6.4 6.4 0 0 1-6.4-6.4v-51.2c0-3.52 2.88-6.4 6.4-6.4h307.2z" fill="#515151" p-id="4340"></path></svg>