<?xml version="1.0" standalone="no"?><!DOCTYPE svg PUBLIC "-//W3C//DTD SVG 1.1//EN" "http://www.w3.org/Graphics/SVG/1.1/DTD/svg11.dtd"><svg class="icon" width="60px" height="60.00px" viewBox="0 0 1024 1024" version="1.1" xmlns="http://www.w3.org/2000/svg"><path d="M16.462769 546.288246l116.105846 115.2v176.569108c0 1.024 0 1.9456 0.118154 2.859323a46.513231 46.513231 0 0 0 11.200985 27.427446c1.599015 1.827446 3.308308 3.654892 5.253908 5.143631a46.662892 46.662892 0 0 0 22.291692 10.397538h181.366154l117.366154 119.201477 12.232861 12.453416c5.600492 3.8912 12.004431 6.514215 18.747077 7.656369 2.512738 0.456862 5.143631 0.685292 7.766646 0.685292 2.630892 0 5.261785-0.228431 7.774523-0.685292a46.056369 46.056369 0 0 0 21.141662-9.373539l6.852923-6.734769L670.168615 884.105846h176.687262c7.089231-1.488738 13.713723-4.568615 19.314215-9.026954 2.520615-2.055877 4.804923-4.229908 6.852923-6.742646a46.442338 46.442338 0 0 0 10.176985-22.740677V668.230892l117.941169-117.1456 16.226462-16.116184a45.607385 45.607385 0 0 0 6.175507-17.029908c0.338708-2.284308 0.456862-4.568615 0.456862-6.852923 0-2.284308-0.228431-4.568615-0.456862-6.852923a44.992985 44.992985 0 0 0-8.231384-20.235816l-10.169108-10.279384-121.824492-124.234831V177.2544a55.949785 55.949785 0 0 0-0.464739-4.340185 44.992985 44.992985 0 0 0-8.223507-20.227938c-0.685292-1.024-1.488738-1.9456-2.174031-2.859323a50.877046 50.877046 0 0 0-5.482339-5.592616c-0.803446-0.693169-1.599015-1.260308-2.402461-1.9456a45.134769 45.134769 0 0 0-23.544123-8.916676H660.007385l-116.003447-116.578462-5.482338-5.482338A46.371446 46.371446 0 0 0 508.345108 0.236308a46.363569 46.363569 0 0 0-30.633354 11.539692l-3.765169 3.662769-120.004923 117.941169H176.2304a46.300554 46.300554 0 0 0-28.002462 11.421539 38.187323 38.187323 0 0 0-3.773046 3.662769l-0.110277 0.118154a46.135138 46.135138 0 0 0-11.894153 28.223015V358.636308L15.895631 475.774031l-0.118154 0.110277-4.111754 4.11963a46.757415 46.757415 0 0 0-11.539692 27.884308C0 508.801969 0 509.825969 0 510.739692c0 11.145846 3.969969 21.921477 11.200985 30.404923l5.253907 5.143631z m254.0544-90.742154a51.932554 51.932554 0 0 1 73.255385-2.17403l112.001969 105.708307 219.309292-201.483815c21.031385-19.314215 53.830892-17.935754 73.145108 3.087754 19.314215 21.031385 17.943631 53.830892-3.087754 73.145107L490.283323 668.002462a51.578092 51.578092 0 0 1-35.083815 13.595569 51.286646 51.286646 0 0 1-35.540677-14.170585L272.573046 528.683323a51.688369 51.688369 0 0 1-2.055877-73.137231z" fill="#1296db" /></svg>