<?xml version="1.0" standalone="no"?><!DOCTYPE svg PUBLIC "-//W3C//DTD SVG 1.1//EN" "http://www.w3.org/Graphics/SVG/1.1/DTD/svg11.dtd"><svg t="1722241353371" class="icon" viewBox="0 0 1024 1024" version="1.1" xmlns="http://www.w3.org/2000/svg" p-id="4653" xmlns:xlink="http://www.w3.org/1999/xlink" width="60" height="60"><path d="M170.666667 170.666667h277.333333v277.333333H170.666667z" fill="#D9ECFF" p-id="4654"></path><path d="M426.666667 192v234.666667H192V192h234.666667m21.333333-42.666667H170.666667a21.333333 21.333333 0 0 0-21.333334 21.333334v277.333333a21.333333 21.333333 0 0 0 21.333334 21.333333h277.333333a21.333333 21.333333 0 0 0 21.333333-21.333333V170.666667a21.333333 21.333333 0 0 0-21.333333-21.333334z" fill="#409EFF" p-id="4655"></path><path d="M170.666667 576h277.333333v277.333333H170.666667z" fill="#D9ECFF" p-id="4656"></path><path d="M426.666667 597.333333v234.666667H192V597.333333h234.666667m21.333333-42.666666H170.666667a21.333333 21.333333 0 0 0-21.333334 21.333333v277.333333a21.333333 21.333333 0 0 0 21.333334 21.333334h277.333333a21.333333 21.333333 0 0 0 21.333333-21.333334V576a21.333333 21.333333 0 0 0-21.333333-21.333333z" fill="#409EFF" p-id="4657"></path><path d="M576 170.666667h277.333333v277.333333H576z" fill="#D9ECFF" p-id="4658"></path><path d="M832 192v234.666667H597.333333V192h234.666667m21.333333-42.666667H576a21.333333 21.333333 0 0 0-21.333333 21.333334v277.333333a21.333333 21.333333 0 0 0 21.333333 21.333333h277.333333a21.333333 21.333333 0 0 0 21.333334-21.333333V170.666667a21.333333 21.333333 0 0 0-21.333334-21.333334z" fill="#409EFF" p-id="4659"></path><path d="M554.666667 554.666667m21.333333 0l277.333333 0q21.333333 0 21.333334 21.333333l0 0q0 21.333333-21.333334 21.333333l-277.333333 0q-21.333333 0-21.333333-21.333333l0 0q0-21.333333 21.333333-21.333333Z" fill="#E6A23C" p-id="4660"></path><path d="M853.333333 554.666667H576a21.333333 21.333333 0 0 0 0 42.666666h277.333333a21.333333 21.333333 0 0 0 0-42.666666z" fill="#E6A23C" p-id="4661"></path><path d="M554.666667 661.333333m21.333333 0l170.666667 0q21.333333 0 21.333333 21.333334l0 0q0 21.333333-21.333333 21.333333l-170.666667 0q-21.333333 0-21.333333-21.333333l0 0q0-21.333333 21.333333-21.333334Z" fill="#E6A23C" p-id="4662"></path><path d="M746.666667 661.333333h-170.666667a21.333333 21.333333 0 0 0 0 42.666667h170.666667a21.333333 21.333333 0 0 0 0-42.666667z" fill="#E6A23C" p-id="4663"></path><path d="M554.666667 768m21.333333 0l277.333333 0q21.333333 0 21.333334 21.333333l0 0q0 21.333333-21.333334 21.333334l-277.333333 0q-21.333333 0-21.333333-21.333334l0 0q0-21.333333 21.333333-21.333333Z" fill="#E6A23C" p-id="4664"></path><path d="M853.333333 768H576a21.333333 21.333333 0 0 0 0 42.666667h277.333333a21.333333 21.333333 0 0 0 0-42.666667z" fill="#E6A23C" p-id="4665"></path></svg>