<?xml version="1.0" standalone="no"?><!DOCTYPE svg PUBLIC "-//W3C//DTD SVG 1.1//EN" "http://www.w3.org/Graphics/SVG/1.1/DTD/svg11.dtd"><svg class="icon" width="200px" height="200.00px" viewBox="0 0 1024 1024" version="1.1" xmlns="http://www.w3.org/2000/svg"><path d="M512 0C229.234 0 0 229.234 0 512s229.234 512 512 512 512-229.234 512-512S794.766 0 512 0z m0 976.149C255.657 976.149 47.851 768.343 47.851 512S255.657 47.851 512 47.851 976.149 255.657 976.149 512 768.343 976.149 512 976.149z m-171.509-480C402.4 390.217 593.886 325.863 510.777 197.417 624.95 264.32 659.691 347.794 572.8 556.823c19.154-6.206 70.309-26.892 83.429-82.034C776.32 584.73 728.64 799.36 545.817 826.56c66.64-34.56 69.646-143.806 38.114-155.703-15.348 20.846-47.874 19.154-66.685 40.137 25.417-71.371-27.555-124-6.046-173.485-124.8 72.182-123.771 241.828-35.543 288.354C354.72 802.777 239.246 669.497 340.491 496.16z" fill="#ffffff" /></svg>