<?xml version="1.0" standalone="no"?><!DOCTYPE svg PUBLIC "-//W3C//DTD SVG 1.1//EN" "http://www.w3.org/Graphics/SVG/1.1/DTD/svg11.dtd"><svg class="icon" width="200px" height="200.00px" viewBox="0 0 1024 1024" version="1.1" xmlns="http://www.w3.org/2000/svg"><path d="M513.242955 40.176941a471.823059 471.823059 0 0 1 333.643294 805.466353l8.794353-9.155765v117.217883a30.117647 30.117647 0 0 1-24.69647 29.635764l-5.421177 0.481883H513.242955A471.823059 471.823059 0 1 1 513.242955 40.176941z m0 60.235294a411.587765 411.587765 0 1 0 0 823.17553h282.202353v-99.267765a30.117647 30.117647 0 0 1 5.782588-17.648941l3.011765-3.614118A411.587765 411.587765 0 0 0 513.242955 100.412235zM513.242955 692.705882a40.176941 40.176941 0 1 1 0 80.293647 40.176941 40.176941 0 0 1 0-80.293647z m25.419294-420.080941c144.082824 9.758118 168.478118 174.320941 74.270118 248.410353-46.019765 39.996235-70.053647 74.571294-69.872941 111.254588a30.117647 30.117647 0 0 1-60.235294 0.361412c-0.301176-59.452235 32.346353-106.496 91.738353-157.997176 56.139294-44.212706 42.465882-136.312471-40.357647-141.974589-67.945412-5.601882-102.159059 25.057882-111.555765 102.640942a30.117647 30.117647 0 1 1-59.753412-7.228236c13.071059-108.544 74.752-163.84 175.766588-155.407059z" fill="#ffffff" /></svg>